<svg width="20" height="12" viewBox="0 0 20 12" fill="none" xmlns="http://www.w3.org/2000/svg">
<path d="M0 12V0H15.4296C16.3377 0 17.1383 0.171429 17.8313 0.514286C18.5243 0.857143 19.056 1.34286 19.4265 1.97143C19.8088 2.6 20 3.33714 20 4.18286C20 5.02857 19.8088 5.76571 19.4265 6.39429C19.056 7.02286 18.5243 7.50857 17.8313 7.85143C17.1383 8.19429 16.3377 8.36571 15.4296 8.36571H3.0828V12H0ZM15.2683 5.65714C15.7701 5.65714 16.1704 5.52571 16.4691 5.26286C16.7678 4.98857 16.9172 4.62857 16.9172 4.18286C16.9172 3.73714 16.7678 3.38286 16.4691 3.12C16.1704 2.84571 15.7701 2.70857 15.2683 2.70857H3.0828V5.65714H15.2683Z" fill="white"/>
</svg>
